<svg xmlns="http://www.w3.org/2000/svg" viewBox="0 0 128 128" width="128" height="128">
  <rect width="128" height="128" rx="20" fill="#24292f"/>
  <g transform="translate(20, 20)">
    <!-- GitHub猫のアイコン風のデザイン -->
    <circle cx="44" cy="35" r="15" fill="white"/>
    <circle cx="44" cy="35" r="10" fill="#24292f"/>
    <circle cx="40" cy="32" r="2" fill="white"/>
    <circle cx="48" cy="32" r="2" fill="white"/>
    <path d="M38 40 Q44 45 50 40" stroke="white" stroke-width="2" fill="none"/>
    <!-- ページアイコン -->
    <rect x="60" y="20" width="25" height="35" rx="3" fill="white"/>
    <rect x="65" y="25" width="15" height="2" fill="#24292f"/>
    <rect x="65" y="30" width="15" height="2" fill="#24292f"/>
    <rect x="65" y="35" width="10" height="2" fill="#24292f"/>
    <rect x="65" y="40" width="12" height="2" fill="#24292f"/>
    <!-- クリップボードアイコン -->
    <path d="M20 45 L20 65 Q20 70 25 70 L45 70 Q50 70 50 65 L50 45 Q50 40 45 40 L25 40 Q20 40 20 45 Z" fill="white"/>
    <rect x="25" y="45" width="20" height="20" fill="#24292f"/>
    <rect x="30" y="50" width="10" height="1" fill="white"/>
    <rect x="30" y="54" width="10" height="1" fill="white"/>
    <rect x="30" y="58" width="8" height="1" fill="white"/>
  </g>
</svg>
